<svg preserveAspectRatio="none" width="100%" height="100%" overflow="visible" style="display: block;" viewBox="0 0 91.4364 247.44" fill="none" xmlns="http://www.w3.org/2000/svg">
<g id="freepik--Character--inject-2">
<path id="Vector" d="M24.1482 238.77L18.4941 236.934L22.0069 223.596L27.661 225.433L24.1482 238.77Z" fill="#FF8B7B"/>
<path id="Vector_2" d="M18.4059 236.18L24.7577 238.241C24.8649 238.273 24.9557 238.345 25.011 238.442C25.0663 238.539 25.0819 238.654 25.0545 238.762L23.7312 243.895C23.6465 244.159 23.4606 244.379 23.2141 244.507C22.9677 244.635 22.6807 244.66 22.4159 244.577C20.2184 243.823 19.2079 243.35 16.4089 242.443C14.6846 241.882 9.02249 240.422 6.64857 239.652C4.27465 238.882 5.10072 236.557 6.1754 236.669C10.9874 237.174 15.3182 236.95 17.3232 236.212C17.6706 236.082 18.0514 236.07 18.4059 236.18Z" fill="#263238"/>
<path id="Vector_3" opacity="0.2" d="M27.661 225.441L22.0069 223.596L20.1944 230.477L25.8565 232.314L27.661 225.441Z" fill="black"/>
<path id="Vector_4" d="M43.1155 90.4322C43.1155 90.4322 32.9702 137.389 30.5883 154.271C27.9818 172.758 18.1894 228.272 18.1894 228.272L28.6875 231.175C28.6875 231.175 43.2358 177.337 47.4864 159.364C52.0979 139.851 64.3284 90.3921 64.3284 90.3921L43.1155 90.4322Z" fill="#1E5AF0"/>
<path id="Vector_5" opacity="0.3" d="M55.6588 105.831C51.6488 114.925 49.6679 134.703 51.2237 143.805C54.0628 132.136 57.4793 118.262 60.1179 107.587C59.2277 104.491 57.752 101.083 55.6588 105.831Z" fill="black"/>
<path id="Vector_6" d="M28.9522 231.384L17.7082 228.288L17.9327 223.709L30.5883 228.079L28.9522 231.384Z" fill="#263238"/>
<path id="Vector_7" d="M16.0801 236.517C16.6031 236.669 17.1408 236.766 17.6841 236.805C17.7109 236.807 17.7377 236.801 17.7613 236.788C17.785 236.775 17.8046 236.756 17.8179 236.733C17.8312 236.709 17.8378 236.683 17.8368 236.656C17.8359 236.629 17.8274 236.603 17.8124 236.581C17.6681 236.396 16.425 234.784 15.647 234.832C15.5575 234.837 15.4706 234.864 15.3947 234.912C15.3189 234.96 15.2566 235.026 15.2139 235.105C15.1336 235.221 15.0853 235.357 15.074 235.497C15.0628 235.638 15.0889 235.78 15.1498 235.907C15.3773 236.215 15.7072 236.431 16.0801 236.517ZM17.3553 236.517C16.2806 236.388 15.5428 236.116 15.3663 235.771C15.3293 235.689 15.3151 235.599 15.3249 235.51C15.3348 235.421 15.3685 235.337 15.4225 235.265C15.4428 235.227 15.4726 235.194 15.5091 235.17C15.5455 235.146 15.5875 235.132 15.631 235.129C16.048 235.081 16.834 235.867 17.3553 236.492V236.517Z" fill="#263238"/>
<path id="Vector_8" d="M17.628 236.797H17.6921C17.7154 236.792 17.7372 236.782 17.7553 236.766C17.7735 236.751 17.7876 236.731 17.7964 236.709C17.7964 236.645 18.4781 235.057 18.0851 234.303C18.0363 234.208 17.9658 234.126 17.8794 234.063C17.7931 234.001 17.6932 233.959 17.5879 233.942C17.474 233.908 17.352 233.913 17.2414 233.957C17.1308 234 17.0382 234.08 16.9783 234.183C16.6495 234.76 17.1067 236.212 17.5638 236.733L17.628 236.797ZM17.628 234.255C17.6816 234.27 17.7315 234.297 17.7743 234.333C17.8171 234.369 17.852 234.413 17.8766 234.463C18.011 235.109 17.9351 235.781 17.66 236.38C17.2717 235.78 17.1255 235.055 17.251 234.351C17.251 234.279 17.3633 234.199 17.5638 234.239L17.628 234.255Z" fill="#263238"/>
<path id="Vector_9" d="M53.9104 45.849C53.6057 46.5708 53.349 47.1162 53.0683 47.7257C52.7876 48.3352 52.4829 48.8966 52.1861 49.4741C51.5927 50.637 50.9671 51.7678 50.3175 52.8986C49.0052 55.1693 47.5591 57.36 45.9867 59.459C44.3773 61.6296 42.5936 63.6654 40.6534 65.5462C38.5863 67.5809 36.2428 69.3142 33.692 70.695L33.4915 70.7993C33.1671 70.9669 32.8219 71.0909 32.465 71.1682C30.6383 71.5481 28.7464 71.4737 26.9552 70.9516C25.467 70.5063 24.0514 69.8471 22.7527 68.9948C20.5741 67.5297 18.6184 65.7577 16.9463 63.7336C15.3928 61.8878 13.98 59.9281 12.7197 57.871C11.4751 55.8494 10.3685 53.7461 9.40747 51.5753C9.15997 51.0012 9.12778 50.357 9.31681 49.7611C9.50584 49.1651 9.90339 48.6573 10.4366 48.3307C10.9697 48.0042 11.6028 47.8809 12.2195 47.9833C12.8363 48.0858 13.3955 48.4072 13.7944 48.8886L13.8746 48.9848C15.1979 50.5888 16.6335 52.2971 18.0771 53.853C19.4838 55.4021 20.9779 56.8695 22.5522 58.2479C23.9437 59.5092 25.4907 60.5873 27.1557 61.4559C27.7782 61.776 28.4464 61.9979 29.1367 62.1136C29.5233 62.1854 29.9221 62.1522 30.2915 62.0173L29.0645 62.4905C30.722 61.373 32.2334 60.0528 33.5637 58.5607C35.0118 56.9342 36.3514 55.2142 37.5737 53.4119C38.8409 51.5673 40.0439 49.6345 41.1747 47.6455C41.7521 46.659 42.3055 45.6565 42.8268 44.638L43.6288 43.1222C43.8774 42.633 44.1501 42.0716 44.3426 41.6786L44.3907 41.5663C44.9753 40.3326 46.0207 39.3774 47.3021 38.9061C48.5834 38.4348 49.9986 38.485 51.2433 39.0459C52.488 39.6068 53.4631 40.6337 53.9588 41.9058C54.4545 43.178 54.4314 44.5938 53.8944 45.849H53.9104Z" fill="#263238"/>
<path id="Vector_10" opacity="0.3" d="M40.7977 56.7402C43.316 50.0515 48.6654 49.9392 50.9831 51.7116C50.8147 52.0244 50.6383 52.3372 50.4618 52.65C49.2038 54.8395 47.8249 56.9574 46.3315 58.9938C44.7989 61.0889 43.1127 63.0673 41.287 64.9126C40.7095 65.482 40.116 66.0434 39.4985 66.5887C39.286 63.2526 39.7274 59.9071 40.7977 56.7402Z" fill="black"/>
<path id="Vector_11" d="M9.20696 51.9923L3.99396 52.1848L5.2932 46.6109C7.08796 46.7 8.86928 46.9687 10.6105 47.4129C10.9275 47.5089 11.2174 47.6782 11.4569 47.9071C11.6963 48.136 11.8784 48.4181 11.9885 48.7305C12.0987 49.0428 12.1336 49.3768 12.0907 49.7052C12.0477 50.0337 11.928 50.3474 11.7413 50.6209C11.4593 51.0355 11.0819 51.3764 10.641 51.615C10.2 51.8536 9.70826 51.983 9.20696 51.9923Z" fill="#FF8B7B"/>
<path id="Vector_12" d="M12.1262 47.2846C11.6146 46.8789 11.029 46.5765 10.4019 46.3944C9.96887 48.6721 7.19395 52.5136 7.19395 52.5136H9.36736C9.64699 52.5145 9.92339 52.4538 10.177 52.336C10.4306 52.2182 10.6553 52.0461 10.835 51.8319L12.3588 50.0034C12.5257 49.8113 12.6524 49.5876 12.7312 49.3456C12.81 49.1037 12.8395 48.8483 12.8178 48.5948C12.7961 48.3412 12.7237 48.0946 12.6049 47.8695C12.4861 47.6445 12.3233 47.4456 12.1262 47.2846Z" fill="#1E5AF0"/>
<path id="Vector_13" d="M5.58472e-06 49.6184L1.45964 45.6886L5.27717 46.6189L3.97792 52.1848L5.58472e-06 49.6184Z" fill="#FF8B7B"/>
<path id="Vector_14" d="M65.5475 241.369H59.6046L59.3961 227.598H65.3389L65.5475 241.369Z" fill="#FF8B7B"/>
<path id="Vector_15" d="M59.2919 240.679H65.9725C66.0284 240.677 66.0841 240.686 66.1365 240.705C66.1889 240.724 66.2369 240.754 66.2779 240.792C66.3188 240.83 66.3519 240.876 66.3752 240.926C66.3985 240.977 66.4116 241.032 66.4136 241.088L66.7344 246.373C66.7345 246.651 66.6251 246.918 66.4301 247.116C66.235 247.314 65.9698 247.428 65.6918 247.432C63.366 247.392 62.2593 247.255 59.2758 247.255C57.4713 247.255 51.4323 247.44 48.938 247.44C46.4438 247.44 46.532 244.97 47.5666 244.745C52.3145 243.751 56.549 242.339 58.2252 241.048C58.5268 240.804 58.9041 240.674 59.2919 240.679Z" fill="#263238"/>
<path id="Vector_16" opacity="0.2" d="M65.347 227.606H59.3961L59.5084 234.704H65.4512L65.347 227.606Z" fill="black"/>
<path id="Vector_17" d="M54.7124 90.4322C54.7124 90.4322 52.4428 142.089 53.4052 159.115C54.4638 177.754 56.6773 232.988 56.6773 232.988H67.5685C67.5685 232.988 70.3113 179.254 70.969 160.808C71.6828 140.758 74.9148 90.4322 74.9148 90.4322H54.7124Z" fill="#1E5AF0"/>
<path id="Vector_18" d="M68.0096 232.988H56.2443L55.346 228.609L68.3304 229.258L68.0096 232.988Z" fill="#263238"/>
<path id="Vector_19" d="M57.1826 241.713C57.7231 241.7 58.2606 241.63 58.7866 241.505C58.812 241.496 58.8348 241.482 58.853 241.462C58.8712 241.442 58.8842 241.419 58.8909 241.393C58.8938 241.367 58.8902 241.341 58.8804 241.317C58.8706 241.293 58.8549 241.272 58.8347 241.256C58.6422 241.12 56.958 239.973 56.2282 240.262C56.1471 240.295 56.0754 240.347 56.0194 240.414C55.9634 240.481 55.9249 240.561 55.9074 240.647C55.8708 240.777 55.8678 240.915 55.8986 241.046C55.9295 241.178 55.9932 241.3 56.0839 241.401C56.3993 241.636 56.7904 241.748 57.1826 241.713ZM58.3856 241.304C57.3189 241.513 56.541 241.481 56.2603 241.208C56.2026 241.141 56.1634 241.059 56.1466 240.972C56.1297 240.885 56.1357 240.795 56.1641 240.711C56.1698 240.668 56.187 240.628 56.2139 240.594C56.2407 240.56 56.2761 240.534 56.3164 240.518C56.7094 240.366 57.6959 240.863 58.3856 241.304Z" fill="#263238"/>
<path id="Vector_20" d="M58.7385 241.505C58.7593 241.512 58.7818 241.512 58.8026 241.505C58.8228 241.493 58.8399 241.477 58.8525 241.458C58.8651 241.438 58.8727 241.416 58.8748 241.393C58.8748 241.32 59.0112 239.612 58.4097 239.035C58.3333 238.96 58.2408 238.904 58.1393 238.87C58.0378 238.837 57.93 238.827 57.8242 238.842C57.7068 238.847 57.5942 238.89 57.5042 238.966C57.4141 239.041 57.3518 239.145 57.327 239.259C57.1826 239.909 58.0728 241.152 58.6663 241.505C58.6898 241.512 58.715 241.512 58.7385 241.505ZM57.9365 239.099C57.9916 239.098 58.0463 239.107 58.0974 239.128C58.1484 239.149 58.1947 239.18 58.2332 239.219C58.5645 239.791 58.7023 240.455 58.6262 241.112C58.1129 240.671 57.5194 239.725 57.6077 239.299C57.6077 239.219 57.6718 239.123 57.8723 239.099H57.9365Z" fill="#263238"/>
<path id="Vector_21" d="M77.8903 42.4886C77.9792 41.9873 77.9661 41.4731 77.8517 40.9769C77.7373 40.4807 77.5239 40.0126 77.2244 39.6008C76.9249 39.189 76.5454 38.8418 76.1086 38.5801C75.6718 38.3184 75.1867 38.1475 74.6823 38.0776H74.6181C72.7013 37.7969 70.2953 37.5082 67.9374 37.3959C63.4365 37.1391 58.9246 37.1391 54.4237 37.3959C52.3465 37.5884 50.3175 37.9333 48.6974 38.2461H48.6333C47.6205 38.4506 46.6826 38.9277 45.9209 39.6258C45.1592 40.324 44.6024 41.2167 44.3105 42.2079C42.3697 48.7442 40.0519 62.0895 43.0834 90.4242H74.8828C75.1073 87.5851 74.4737 78.3461 74.9389 66.5807C75.4037 58.4949 76.3895 50.4475 77.8903 42.4886Z" fill="#263238"/>
<path id="Vector_22" opacity="0.3" d="M77.5855 44.237C76.9279 48.0385 76.1178 53.2114 75.5564 58.673C75.5564 58.673 72.6532 52.9788 72.1239 48.1107C71.5945 43.2425 75.773 42.8736 77.5855 44.237Z" fill="black"/>
<g id="Group" opacity="0.2">
<path id="Vector_23" d="M56.2603 44.9909C56.1943 44.9878 56.1311 44.9634 56.0802 44.9213C56.0293 44.8792 55.9935 44.8217 55.9781 44.7574C55.9627 44.6932 55.9686 44.6257 55.9949 44.5651C56.0213 44.5045 56.0665 44.4541 56.124 44.4215L66.0367 39.2806C66.1072 39.2463 66.1882 39.2405 66.2629 39.2644C66.3376 39.2883 66.4002 39.3401 66.4377 39.409C66.4745 39.4803 66.4816 39.5633 66.4576 39.6398C66.4336 39.7164 66.3803 39.7804 66.3094 39.818L56.3966 44.9428C56.3547 44.9675 56.3084 44.9838 56.2603 44.9909Z" fill="white"/>
<path id="Vector_24" d="M60.7996 45.456C60.7605 45.4577 60.7215 45.4506 60.6854 45.4354C60.6494 45.4201 60.6172 45.397 60.5911 45.3678L55.1535 39.9704C55.1 39.9125 55.0702 39.8366 55.0702 39.7578C55.0702 39.679 55.1 39.6031 55.1535 39.5453C55.2104 39.4899 55.2867 39.459 55.3661 39.459C55.4454 39.459 55.5217 39.4899 55.5786 39.5453L61.0081 44.9508C61.0635 45.0077 61.0945 45.0839 61.0945 45.1633C61.0945 45.2427 61.0635 45.3189 61.0081 45.3758C60.9805 45.4024 60.9478 45.4232 60.912 45.4369C60.8761 45.4507 60.838 45.4572 60.7996 45.456Z" fill="white"/>
<path id="Vector_25" d="M67.9615 37.3879C63.4633 37.1311 58.954 37.1311 54.4558 37.3879H54.2312C54.122 37.8006 54.0962 38.231 54.1555 38.6538C54.2147 39.0766 54.3577 39.4833 54.5761 39.8501C55.33 41.0531 56.9099 41.7267 59.2838 41.8551H60.1741C66.5901 41.8551 69.0683 37.9573 69.1725 37.7889L69.3971 37.428L67.9615 37.3879Z" fill="white"/>
</g>
<path id="Vector_26" d="M55.0974 37.3398C59.0272 36.4095 59.7169 33.9794 59.4523 31.3088C59.3899 30.6399 59.2855 29.9756 59.1395 29.3198L64.0638 25.2296L67.6808 22.2301C66.6783 26.585 65.5475 34.5168 68.4828 37.42C68.4828 37.42 66.0768 41.43 59.3159 41.0771C53.6458 40.7643 55.0974 37.3398 55.0974 37.3398Z" fill="#FF8B7B"/>
<path id="Vector_27" opacity="0.2" d="M59.1395 29.3198C59.2855 29.9756 59.3899 30.6399 59.4523 31.3088C61.2888 30.9398 63.743 28.983 63.9996 27.1063C64.0898 26.485 64.1113 25.8556 64.0638 25.2296L59.1395 29.3198Z" fill="black"/>
<path id="Vector_28" d="M56.525 8.45177C53.8543 10.0558 54.2794 14.0658 53.5576 16.9369C55.2578 17.1053 57.9365 14.0818 57.9365 14.0818L59.5405 9.48635L56.525 8.45177Z" fill="#263238"/>
<path id="Vector_29" d="M70.7284 16.5199C69.0201 22.182 68.3224 25.5745 64.6974 27.9404C63.5316 28.72 62.1748 29.166 60.7738 29.2302C59.3728 29.2943 57.981 28.9742 56.7488 28.3044C55.5166 27.6347 54.491 26.6407 53.783 25.4302C53.0749 24.2196 52.7113 22.8384 52.7315 21.4361C52.7315 16.0387 55.5064 7.68184 61.6979 6.52696C63.0324 6.24176 64.4184 6.31262 65.7169 6.73243C67.0153 7.15223 68.1805 7.9062 69.0955 8.91867C70.0104 9.93114 70.643 11.1665 70.9296 12.5007C71.2162 13.8349 71.1468 15.221 70.7284 16.5199Z" fill="#FF8B7B"/>
<path id="Vector_30" d="M65.3951 21.3239C69.4051 16.6723 64.3926 14.3785 68.4908 11.1465C63.8793 11.363 56.2844 11.0342 54.929 7.87432C53.5736 4.71444 57.744 0.431766 61.2167 0.0307655C65.2267 -0.434394 64.3605 4.52999 64.3605 4.52999C64.3605 4.52999 79.7028 3.57561 74.8346 10.144C78.5238 9.91943 77.5053 15.8863 71.0893 20.9229C69.4773 21.4602 65.3951 21.3239 65.3951 21.3239Z" fill="#263238"/>
<path id="Vector_31" d="M73.9123 10.2242C73.9123 10.2242 77.0722 9.28584 76.9679 6.7836C78.1068 7.56956 78.2271 9.95952 73.9123 10.2242Z" fill="#263238"/>
<path id="Vector_32" d="M71.6667 22.4306C70.7438 23.5707 69.4543 24.3558 68.0176 24.6522C66.1971 24.981 65.772 23.2968 66.6783 21.6527C67.4803 20.177 69.4291 18.2281 71.0652 18.6372C72.7013 19.0462 72.8296 20.995 71.6667 22.4306Z" fill="#FF8B7B"/>
<path id="Vector_33" d="M61.5936 16.3755C61.4813 16.8407 61.1445 17.1775 60.8317 17.1053C60.5189 17.0332 60.3665 16.6161 60.4788 16.151C60.5911 15.6858 60.9279 15.349 61.2327 15.4131C61.5375 15.4773 61.7059 15.9023 61.5936 16.3755Z" fill="#263238"/>
<path id="Vector_34" d="M56.2763 15.3089C56.1641 15.774 55.8272 16.1109 55.5225 16.0467C55.2177 15.9825 55.0493 15.5575 55.1616 15.0923C55.2738 14.6272 55.6107 14.2903 55.9154 14.3545C56.2202 14.4186 56.3886 14.8437 56.2763 15.3089Z" fill="#263238"/>
<path id="Vector_35" d="M57.9124 15.8783C57.0072 17.1986 55.9281 18.391 54.7044 19.4231C54.977 19.717 55.3108 19.9477 55.6821 20.0987C56.0535 20.2497 56.4534 20.3175 56.8538 20.2973L57.9124 15.8783Z" fill="#FF5652"/>
<path id="Vector_36" d="M58.4899 21.9334C59.0451 21.9855 59.6051 21.9243 60.1359 21.7533C60.6666 21.5823 61.1572 21.3053 61.5776 20.9389C61.5912 20.9269 61.6021 20.912 61.6096 20.8955C61.6171 20.8789 61.621 20.8609 61.621 20.8427C61.621 20.8245 61.6171 20.8065 61.6096 20.7899C61.6021 20.7733 61.5912 20.7585 61.5776 20.7464C61.5507 20.7205 61.5147 20.7059 61.4773 20.7059C61.4399 20.7059 61.404 20.7205 61.3771 20.7464C60.9161 21.1383 60.3707 21.4183 59.7836 21.5644C59.1965 21.7105 58.5835 21.7187 57.9926 21.5885C57.9747 21.5851 57.9562 21.5853 57.9384 21.5891C57.9205 21.5929 57.9036 21.6002 57.8887 21.6107C57.8737 21.6212 57.861 21.6346 57.8513 21.65C57.8416 21.6655 57.8351 21.6828 57.8322 21.7008C57.8251 21.738 57.8329 21.7765 57.8539 21.808C57.8749 21.8395 57.9074 21.8615 57.9445 21.8692L58.4899 21.9334Z" fill="#263238"/>
<path id="Vector_37" d="M63.6467 15.0763C63.691 15.091 63.7388 15.091 63.7831 15.0763C63.8167 15.0616 63.8471 15.0403 63.8723 15.0136C63.8975 14.9869 63.9171 14.9553 63.9298 14.9209C63.9425 14.8864 63.9482 14.8497 63.9464 14.8131C63.9446 14.7764 63.9354 14.7404 63.9194 14.7074C63.7472 14.2973 63.4762 13.9362 63.1306 13.6563C62.7849 13.3765 62.3754 13.1865 61.9385 13.1034C61.8642 13.0941 61.7893 13.114 61.7295 13.1589C61.6696 13.2038 61.6296 13.2701 61.6177 13.344C61.6132 13.3809 61.6161 13.4183 61.6262 13.4541C61.6363 13.4898 61.6535 13.5232 61.6766 13.5523C61.6997 13.5814 61.7284 13.6056 61.761 13.6236C61.7935 13.6415 61.8293 13.6528 61.8663 13.6567C62.206 13.7285 62.5233 13.8811 62.7914 14.1017C63.0595 14.3223 63.2704 14.6044 63.4061 14.9239C63.4296 14.9679 63.4642 15.0051 63.5063 15.0318C63.5485 15.0585 63.5969 15.0739 63.6467 15.0763Z" fill="#263238"/>
<path id="Vector_38" d="M54.9611 12.1169C55.0042 12.1326 55.0508 12.1364 55.096 12.1279C55.1411 12.1195 55.1831 12.099 55.2177 12.0688C55.4946 11.8383 55.8215 11.6755 56.1723 11.5933C56.5231 11.5112 56.8883 11.512 57.2387 11.5956C57.274 11.6072 57.3112 11.6117 57.3483 11.6089C57.3853 11.6061 57.4214 11.5961 57.4546 11.5793C57.4877 11.5625 57.5172 11.5394 57.5414 11.5113C57.5656 11.4831 57.5841 11.4504 57.5956 11.4152C57.6072 11.3799 57.6117 11.3427 57.6089 11.3056C57.6061 11.2686 57.5961 11.2325 57.5793 11.1993C57.5626 11.1662 57.5394 11.1367 57.5113 11.1125C57.4831 11.0883 57.4505 11.0699 57.4152 11.0583C56.9763 10.9498 56.5182 10.9448 56.077 11.0436C55.6358 11.1424 55.2236 11.3424 54.8728 11.6277C54.8145 11.6735 54.7767 11.7406 54.7677 11.8142C54.7587 11.8879 54.7792 11.9621 54.8247 12.0207C54.8572 12.068 54.9056 12.1021 54.9611 12.1169Z" fill="#263238"/>
<path id="Vector_39" d="M78.179 40.2029L78.8446 41.1092L79.4461 41.9593C79.8471 42.5287 80.208 43.0982 80.585 43.6676C81.3148 44.8144 82.0045 45.9773 82.6702 47.1483C84.0043 49.489 85.2143 51.8983 86.2952 54.3663C86.8566 55.5853 87.3378 56.8525 87.8511 58.0956C88.3644 59.3387 88.7974 60.6299 89.1904 61.9291C90.0355 64.515 90.7317 67.1472 91.2756 69.8128L91.3398 70.1175C91.4575 70.6558 91.4677 71.212 91.37 71.7542C91.2723 72.2965 91.0685 72.8141 90.7704 73.2774C89.737 74.8634 88.5113 76.3154 87.1213 77.6002C85.6915 78.9103 84.0685 79.9924 82.3093 80.8082C80.5725 81.6176 78.7132 82.1325 76.8075 82.332C75.875 82.4281 74.9359 82.4442 74.0005 82.3801C73.5354 82.3801 73.0702 82.2919 72.6051 82.2197L71.8993 82.0834L71.0973 81.8829C71.003 81.86 70.9214 81.8009 70.8704 81.7183C70.8193 81.6357 70.8029 81.5364 70.8246 81.4418L71.9314 76.7902C71.9314 76.7501 72.1399 76.7421 72.2682 76.71L72.7093 76.6218C73.0141 76.5576 73.3108 76.4854 73.6156 76.4052C74.2096 76.2443 74.7913 76.0406 75.3559 75.7957C76.449 75.347 77.4724 74.7448 78.3955 74.0072C80.2014 72.5209 81.6443 70.642 82.614 68.5135L82.1088 71.9782C81.419 69.7085 80.6892 67.4629 79.807 65.2414C78.9248 63.0198 77.9624 60.8384 76.9118 58.689C75.8612 56.5397 74.7384 54.4144 73.5274 52.3452C72.9339 51.3106 72.3083 50.2921 71.6828 49.2816L70.7284 47.7899L70.2552 47.0681L69.8141 46.4265L69.6537 46.1859C68.8603 45.0553 68.5485 43.656 68.7869 42.2955C69.0253 40.9351 69.7943 39.7252 70.9249 38.9318C72.0554 38.1384 73.4548 37.8266 74.8152 38.065C76.1756 38.3034 77.3856 39.0724 78.179 40.2029Z" fill="#263238"/>
<path id="Vector_40" d="M67.5765 81.4177L65.8522 84.2408L73.3349 83.944C73.3349 83.944 75.2998 78.9075 72.6211 78.1135L71.5785 78.3942C69.9109 78.8612 68.4814 79.9412 67.5765 81.4177Z" fill="#FF8B7B"/>
<path id="Vector_41" d="M70.6562 77.4639C70.1172 77.8283 69.6541 78.2941 69.2928 78.8353C71.3299 79.942 74.169 83.7114 74.169 83.7114L74.8266 81.6423C74.9102 81.3754 74.9342 81.0934 74.8968 80.8162C74.8593 80.539 74.7615 80.2734 74.6101 80.0383L73.367 78.0333C73.2311 77.8126 73.0517 77.6219 72.8397 77.4728C72.6277 77.3237 72.3876 77.2193 72.134 77.166C71.8803 77.1127 71.6185 77.1117 71.3644 77.1629C71.1104 77.2141 70.8694 77.3165 70.6562 77.4639Z" fill="#1E5AF0"/>
<path id="Vector_42" d="M66.5099 88.5876L72.6772 88.0422L73.3349 83.944L65.8522 84.2408L66.5099 88.5876Z" fill="#FF8B7B"/>
</g>
</svg>
