<svg preserveAspectRatio="none" width="100%" height="100%" overflow="visible" style="display: block;" viewBox="0 0 401 277.861" fill="none" xmlns="http://www.w3.org/2000/svg">
<g id="freepik--background-complete--inject-2">
<path id="Vector" d="M401 262.575H0V262.775H401V262.575Z" fill="#EBEBEB"/>
<path id="Vector_2" d="M360.82 275.479H334.258V275.679H360.82V275.479Z" fill="#EBEBEB"/>
<path id="Vector_3" d="M265.638 277.66H258.669V277.861H265.638V277.66Z" fill="#EBEBEB"/>
<path id="Vector_4" d="M333.456 268.036H318.065V268.237H333.456V268.036Z" fill="#EBEBEB"/>
<path id="Vector_5" d="M76.7113 269.384H42.0729V269.584H76.7113V269.384Z" fill="#EBEBEB"/>
<path id="Vector_6" d="M88.9338 269.384H83.8571V269.584H88.9338V269.384Z" fill="#EBEBEB"/>
<path id="Vector_7" d="M180.57 272.768H105.439V272.969H180.57V272.768Z" fill="#EBEBEB"/>
<path id="Vector_8" d="M190.074 226.806H35.2158C34.0027 226.803 32.8399 226.32 31.9829 225.461C31.1258 224.603 30.6444 223.439 30.6444 222.226V4.53932C30.655 3.33313 31.141 2.17982 31.9969 1.32989C32.8529 0.479963 34.0096 0.00206626 35.2158 0H190.074C191.289 0 192.453 0.482473 193.312 1.34128C194.171 2.20009 194.653 3.36488 194.653 4.57942V222.226C194.653 223.441 194.171 224.606 193.312 225.464C192.453 226.323 191.289 226.806 190.074 226.806ZM35.2158 0.160401C34.0558 0.162525 32.9441 0.62481 32.1246 1.44579C31.3052 2.26676 30.8449 3.37935 30.8449 4.53932V222.226C30.8449 223.386 31.3052 224.499 32.1246 225.32C32.9441 226.141 34.0558 226.603 35.2158 226.605H190.074C191.235 226.603 192.347 226.141 193.168 225.32C193.989 224.499 194.451 223.387 194.453 222.226V4.53932C194.451 3.37861 193.989 2.26604 193.168 1.4453C192.347 0.62455 191.235 0.162521 190.074 0.160401H35.2158Z" fill="#EBEBEB"/>
<path id="Vector_9" d="M363.555 226.806H208.688C207.475 226.803 206.311 226.32 205.453 225.462C204.594 224.604 204.111 223.44 204.109 222.226V4.53932C204.122 3.3324 204.609 2.1791 205.467 1.32939C206.324 0.479683 207.481 0.00204373 208.688 0H363.555C364.759 0.00417401 365.914 0.483004 366.768 1.33271C367.623 2.18241 368.107 3.33452 368.118 4.53932V222.226C368.118 223.438 367.638 224.6 366.782 225.459C365.927 226.317 364.766 226.801 363.555 226.806ZM208.688 0.160401C207.528 0.162521 206.415 0.62455 205.594 1.4453C204.774 2.26604 204.312 3.37861 204.309 4.53932V222.226C204.312 223.387 204.774 224.499 205.594 225.32C206.415 226.141 207.528 226.603 208.688 226.605H363.555C364.715 226.603 365.828 226.141 366.649 225.32C367.469 224.499 367.931 223.387 367.934 222.226V4.53932C367.931 3.37861 367.469 2.26604 366.649 1.4453C365.828 0.62455 364.715 0.162521 363.555 0.160401H208.688Z" fill="#EBEBEB"/>
<path id="Vector_10" d="M53.5656 262.575H162.397L162.397 32.5692H53.5656L53.5656 262.575Z" fill="#E6E6E6"/>
<path id="Vector_11" d="M51.1516 262.575H159.983L159.983 32.5692H51.1516L51.1516 262.575Z" fill="#F5F5F5"/>
<path id="Vector_12" d="M155.644 257.699V37.4454L55.4984 37.4454L55.4984 257.699H155.644Z" fill="#FAFAFA"/>
<path id="Vector_13" d="M132.579 257.699L107.203 37.4454H78.5559L103.931 257.699H132.579Z" fill="white"/>
<path id="Vector_14" d="M57.327 257.699L57.327 37.4454H55.4984L55.4984 257.699H57.327Z" fill="#E6E6E6"/>
<path id="Vector_15" d="M52.948 63.0693L158.186 63.0693V56.525L52.948 56.525V63.0693Z" fill="#F5F5F5"/>
<path id="Vector_16" d="M219.932 262.575V129.122H175.991V262.575H219.932Z" fill="#F0F0F0"/>
<path id="Vector_17" d="M217.518 172.133V133.02H178.405V172.133H217.518Z" fill="#F5F5F5"/>
<path id="Vector_18" d="M217.518 214.76V175.646H178.405V214.76H217.518Z" fill="#F5F5F5"/>
<path id="Vector_19" d="M217.518 257.386V218.272H178.405V257.386H217.518Z" fill="#F5F5F5"/>
<path id="Vector_20" d="M206.619 132.506H189.272C189.267 133.04 189.368 133.569 189.569 134.063C189.771 134.556 190.069 135.005 190.446 135.382C190.823 135.759 191.272 136.058 191.766 136.259C192.26 136.461 192.789 136.562 193.322 136.557H202.529C203.064 136.561 203.594 136.459 204.09 136.258C204.586 136.056 205.036 135.759 205.416 135.382C205.797 135.006 206.099 134.558 206.305 134.064C206.511 133.571 206.618 133.041 206.619 132.506Z" fill="#E6E6E6"/>
<path id="Vector_21" d="M206.619 175.133H189.272C189.272 176.208 189.698 177.239 190.458 177.999C191.217 178.76 192.247 179.189 193.322 179.191H202.529C203.064 179.194 203.595 179.091 204.091 178.889C204.586 178.687 205.037 178.388 205.417 178.011C205.797 177.634 206.099 177.186 206.305 176.692C206.511 176.198 206.618 175.668 206.619 175.133Z" fill="#E6E6E6"/>
<path id="Vector_22" d="M206.619 217.759H189.272C189.272 218.834 189.698 219.865 190.458 220.626C191.217 221.387 192.247 221.815 193.322 221.817H202.529C203.064 221.82 203.595 221.718 204.091 221.515C204.586 221.313 205.037 221.015 205.417 220.638C205.797 220.261 206.099 219.812 206.305 219.318C206.511 218.824 206.618 218.294 206.619 217.759Z" fill="#E6E6E6"/>
<path id="Vector_23" d="M241.875 262.575V129.122H219.924V262.575H241.875Z" fill="#F5F5F5"/>
<path id="Vector_24" d="M337.233 259.295H349.415V158.82H337.233V259.295Z" fill="#F0F0F0"/>
<path id="Vector_25" d="M230.751 262.575H347.731V259.295H230.751V262.575Z" fill="#F0F0F0"/>
<path id="Vector_26" d="M337.233 158.82H229.059V259.295H337.233V158.82Z" fill="#FAFAFA"/>
<path id="Vector_27" d="M250.224 217.534H316.036C319.144 217.534 322.124 216.3 324.321 214.103C326.519 211.905 327.753 208.925 327.753 205.817C327.753 202.71 326.519 199.729 324.321 197.532C322.124 195.335 319.144 194.1 316.036 194.1H250.224C247.116 194.1 244.136 195.335 241.939 197.532C239.741 199.729 238.507 202.71 238.507 205.817C238.507 208.925 239.741 211.905 241.939 214.103C244.136 216.3 247.116 217.534 250.224 217.534ZM316.052 194.886C317.488 194.886 318.909 195.169 320.235 195.718C321.562 196.267 322.767 197.073 323.782 198.088C324.797 199.103 325.602 200.308 326.151 201.634C326.701 202.96 326.983 204.382 326.983 205.817C326.983 207.253 326.701 208.674 326.151 210C325.602 211.327 324.797 212.532 323.782 213.547C322.767 214.562 321.562 215.367 320.235 215.916C318.909 216.466 317.488 216.749 316.052 216.749H250.224C247.325 216.749 244.544 215.597 242.494 213.547C240.444 211.497 239.293 208.716 239.293 205.817C239.293 202.918 240.444 200.138 242.494 198.088C244.544 196.038 247.325 194.886 250.224 194.886H316.052Z" fill="#F0F0F0"/>
<path id="Vector_28" d="M250.224 246.687H316.036C319.144 246.687 322.124 245.453 324.321 243.255C326.519 241.058 327.753 238.078 327.753 234.97C327.753 231.862 326.519 228.882 324.321 226.685C322.124 224.487 319.144 223.253 316.036 223.253H250.224C247.116 223.253 244.136 224.487 241.939 226.685C239.741 228.882 238.507 231.862 238.507 234.97C238.507 238.078 239.741 241.058 241.939 243.255C244.136 245.453 247.116 246.687 250.224 246.687ZM316.036 224.039C317.496 223.999 318.949 224.253 320.309 224.784C321.67 225.315 322.91 226.114 323.956 227.132C325.003 228.151 325.835 229.369 326.403 230.714C326.971 232.06 327.263 233.506 327.263 234.966C327.263 236.426 326.971 237.872 326.403 239.217C325.835 240.563 325.003 241.781 323.956 242.799C322.91 243.818 321.67 244.617 320.309 245.148C318.949 245.679 317.496 245.933 316.036 245.893H250.224C248.764 245.933 247.311 245.679 245.951 245.148C244.59 244.617 243.35 243.818 242.304 242.799C241.257 241.781 240.425 240.563 239.857 239.217C239.289 237.872 238.997 236.426 238.997 234.966C238.997 233.506 239.289 232.06 239.857 230.714C240.425 229.369 241.257 228.151 242.304 227.132C243.35 226.114 244.59 225.315 245.951 224.784C247.311 224.253 248.764 223.999 250.224 224.039H316.036Z" fill="#F0F0F0"/>
<path id="Vector_29" d="M273.217 203.291H293.075C293.723 203.289 294.344 203.03 294.802 202.572C295.26 202.114 295.519 201.493 295.521 200.845C295.519 200.197 295.26 199.576 294.802 199.118C294.344 198.659 293.723 198.401 293.075 198.399H273.217C272.569 198.401 271.948 198.659 271.49 199.118C271.032 199.576 270.773 200.197 270.771 200.845C270.773 201.493 271.032 202.114 271.49 202.572C271.948 203.03 272.569 203.289 273.217 203.291Z" fill="#EBEBEB"/>
<path id="Vector_30" d="M250.224 188.382H316.036C319.144 188.382 322.124 187.147 324.321 184.95C326.519 182.752 327.753 179.772 327.753 176.665C327.753 173.557 326.519 170.577 324.321 168.379C322.124 166.182 319.144 164.947 316.036 164.947H250.224C247.116 164.947 244.136 166.182 241.939 168.379C239.741 170.577 238.507 173.557 238.507 176.665C238.507 179.772 239.741 182.752 241.939 184.95C244.136 187.147 247.116 188.382 250.224 188.382ZM316.036 165.733C318.935 165.733 321.716 166.885 323.766 168.935C325.816 170.985 326.967 173.765 326.967 176.665C326.967 179.564 325.816 182.344 323.766 184.394C321.716 186.444 318.935 187.596 316.036 187.596H250.224C247.325 187.596 244.544 186.444 242.494 184.394C240.444 182.344 239.293 179.564 239.293 176.665C239.293 173.765 240.444 170.985 242.494 168.935C244.544 166.885 247.325 165.733 250.224 165.733H316.036Z" fill="#F0F0F0"/>
<path id="Vector_31" d="M273.217 174.138H293.075C293.723 174.136 294.344 173.878 294.802 173.419C295.26 172.961 295.519 172.34 295.521 171.692C295.51 171.05 295.248 170.438 294.79 169.988C294.333 169.538 293.717 169.286 293.075 169.286H273.217C272.575 169.286 271.959 169.538 271.502 169.988C271.044 170.438 270.782 171.05 270.771 171.692C270.773 172.34 271.032 172.961 271.49 173.419C271.948 173.878 272.569 174.136 273.217 174.138Z" fill="#EBEBEB"/>
<path id="Vector_32" d="M273.217 232.436H293.075C293.717 232.436 294.333 232.184 294.79 231.733C295.248 231.283 295.51 230.671 295.521 230.03C295.508 229.389 295.245 228.778 294.788 228.328C294.331 227.878 293.716 227.626 293.075 227.624H273.217C272.576 227.626 271.961 227.878 271.504 228.328C271.047 228.778 270.784 229.389 270.771 230.03C270.782 230.671 271.044 231.283 271.502 231.733C271.959 232.184 272.575 232.436 273.217 232.436Z" fill="#EBEBEB"/>
<path id="Vector_33" d="M226.83 158.82H337.225V153.711H226.83V158.82Z" fill="#F0F0F0"/>
<path id="Vector_34" d="M351.805 153.719H337.233V158.828H351.805V153.719Z" fill="#E6E6E6"/>
<path id="Vector_35" d="M258.244 73.2948C260.706 74.5299 267.379 73.1985 265.157 77.7138C263.878 80.079 262.348 82.3 260.594 84.3383C258.108 87.41 258.581 90.7543 261.516 91.9413C262.146 92.1572 262.702 92.5463 263.12 93.0641C264.476 95.0049 261.284 97.6034 259.712 99.5442C258.14 101.485 257.514 103.394 258.669 104.837C259.952 106.441 262.615 105.84 264.732 106.321C269.817 107.484 264.588 114.502 265.125 118.103C265.494 120.573 267.531 121.262 270.218 121.607C272.439 121.896 275.399 122.096 275.519 124.366C275.631 126.339 273.065 128.569 272.391 130.638C272.072 131.528 271.95 132.478 272.036 133.42C272.122 134.362 272.413 135.274 272.889 136.091C273.34 136.781 273.929 137.369 274.619 137.819C275.31 138.269 276.086 138.571 276.899 138.706C279.417 139.235 283.226 138.706 283.411 141.529C283.491 142.796 282.609 143.935 283.218 145.09C283.556 145.577 283.996 145.985 284.507 146.286C285.018 146.586 285.588 146.772 286.178 146.83C288.59 147.198 291.046 147.155 293.444 146.702C296.403 146.156 300.774 143.55 299.17 141.04C298.894 140.68 298.549 140.378 298.155 140.152C297.761 139.927 297.327 139.781 296.876 139.724C296.171 139.58 294.101 139.805 293.837 139.323C293.572 138.842 294.286 136.99 294.31 136.324C294.383 134.475 294.091 132.63 293.452 130.894C292.635 128.625 291.332 126.561 289.634 124.847C288.929 124.134 287.814 123.612 287.669 122.578C287.525 121.543 288.175 120.404 288.896 119.37C290.027 117.766 291.784 116.258 292.417 114.558C293.412 111.879 290.998 111.029 288.76 110.419C286.739 109.866 284.076 109.16 284.75 106.706C285.247 104.934 287.485 103.498 288.151 101.75C289.057 99.432 286.859 99.3437 285.295 98.5417C283.25 97.4671 282.737 95.5423 283.475 93.1122C284.702 89.1022 292.056 83.4321 288.287 80.8256C287.333 80.1599 286.442 79.9434 285.881 78.9409C285.319 77.9384 285.175 76.5349 284.373 75.5885C283.106 74.0567 280.483 73.8 279.12 72.3805C276.305 69.4612 282.376 64.2883 276.834 63.0532C275.664 62.9026 274.556 62.44 273.626 61.7139C273.121 61.2407 272.704 58.955 272.135 58.7946C269.592 58.0889 265.013 63.0212 263.569 64.5369C261.813 66.3655 255.325 71.8191 258.244 73.2948Z" fill="#E0E0E0"/>
<path id="Vector_36" d="M301.865 141.32C300.357 138.521 293.757 135.706 298.135 132.498C300.497 130.891 303.038 129.564 305.706 128.545C309.54 126.941 310.903 123.251 308.962 120.196C308.516 119.553 308.24 118.808 308.16 118.03C308 115.207 312.211 114.534 314.633 113.515C317.055 112.497 318.643 110.941 318.378 108.743C318.105 106.337 315.443 105.262 313.831 103.458C309.965 99.1112 318.338 95.1733 319.789 91.1473C320.784 88.3884 319.388 86.4396 317.175 84.3945C315.37 82.7183 312.86 80.6812 313.967 78.2752C314.929 76.19 318.386 75.5003 320.086 73.8C320.871 73.0313 321.494 72.1143 321.921 71.1024C322.348 70.0904 322.569 69.0036 322.572 67.9053C322.534 65.981 321.776 64.141 320.447 62.7485C318.506 60.6392 314.833 58.8347 316.205 55.8112C316.814 54.4638 318.202 53.8623 318.282 52.2824C318.257 51.5983 318.096 50.9259 317.809 50.3048C317.521 49.6837 317.112 49.1263 316.606 48.6654C314.727 46.8247 312.532 45.3385 310.125 44.2784C307.222 42.9952 301.969 42.9551 302.041 46.524C302.131 47.5748 302.599 48.5575 303.356 49.2909C303.91 49.8844 305.851 50.935 305.827 51.5927C305.803 52.2503 304.223 53.7019 303.798 54.3676C302.734 56.2592 302.01 58.3219 301.656 60.4628C301.16 63.3009 301.206 66.2073 301.793 69.0281C302.025 70.191 302.739 71.4341 302.306 72.573C301.873 73.7118 300.702 74.4817 299.523 75.0672C297.67 75.9975 295.304 76.4707 293.837 77.8181C291.519 79.9434 293.195 82.3173 294.847 84.3303C296.339 86.1508 298.304 88.5248 296.387 90.618C295 92.1257 292.249 92.222 290.773 93.5774C288.736 95.3979 290.621 96.8495 291.575 98.6781C292.794 101.084 292.225 103.33 290.268 105.359C287.06 108.711 277.516 109.946 279.449 114.983C279.938 116.258 280.596 117.036 280.572 118.415C280.548 119.795 279.914 121.303 280.107 122.786C280.403 125.144 282.577 127.037 283.026 129.339C283.94 134.078 275.808 135.61 280.042 140.31C281.031 141.237 281.766 142.402 282.176 143.694C282.376 144.496 281.51 147.087 281.927 147.608C283.796 149.91 290.476 147.712 292.562 147.047C295.024 146.205 303.669 144.649 301.865 141.32Z" fill="#F5F5F5"/>
<path id="Vector_37" d="M318.771 135.009C318.771 135.009 317.969 153.719 287.349 153.719C256.728 153.719 255.926 135.009 255.926 135.009H318.771Z" fill="#F0F0F0"/>
</g>
</svg>
