<svg preserveAspectRatio="none" width="100%" height="100%" overflow="visible" style="display: block;" viewBox="0 0 50.943 50.5019" fill="none" xmlns="http://www.w3.org/2000/svg">
<g id="freepik--Clock--inject-2">
<path id="Vector" d="M12.5112 2.51828L12.1022 1.82857C13.2783 1.13157 14.5032 0.520456 15.7673 0L16.0721 0.74586C14.8428 1.24755 13.6526 1.83999 12.5112 2.51828Z" fill="#1E5AF0"/>
<path id="Vector_2" d="M0.802006 16.6816L5.46265e-06 16.4089C1.9012 11.1446 5.34088 6.57322 9.87262 3.2882L10.3458 3.93782C5.95713 7.13113 2.63154 11.5718 0.802006 16.6816Z" fill="#1E5AF0"/>
<path id="Vector_3" d="M26.2575 50.5019C39.8909 50.5019 50.943 39.4498 50.943 25.8164C50.943 12.1829 39.8909 1.13082 26.2575 1.13082C12.624 1.13082 1.57192 12.1829 1.57192 25.8164C1.57192 39.4498 12.624 50.5019 26.2575 50.5019Z" fill="#1E5AF0"/>
<path id="Vector_4" opacity="0.6" d="M46.8769 25.8164C46.8753 30.6269 45.1919 35.2855 42.1179 38.9857C39.0439 42.6859 34.7729 45.1949 30.0442 46.0784C25.3155 46.9618 20.4268 46.1641 16.2242 43.8233C12.0216 41.4826 8.76967 37.7461 7.03136 33.2606C5.29305 28.7751 5.17776 23.8231 6.70543 19.2616C8.23309 14.7001 11.3076 10.8163 15.3967 8.28243C19.4858 5.7486 24.3321 4.72423 29.0968 5.38664C33.8615 6.04905 38.2446 8.35655 41.4875 11.9097C41.4938 11.9068 41.5006 11.9053 41.5075 11.9053C41.5144 11.9053 41.5213 11.9068 41.5276 11.9097C44.9851 15.7144 46.8934 20.6754 46.8769 25.8164Z" fill="white"/>
<path id="Vector_5" d="M46.8769 25.8164C46.8768 29.8244 45.7086 33.7456 43.5152 37.1002C41.3217 40.4548 38.1981 43.0974 34.5265 44.7047C30.8549 46.3121 26.7944 46.8145 22.8417 46.1505C18.889 45.4865 15.2155 43.685 12.2706 40.9662C8.66996 37.0426 6.72698 31.878 6.84852 26.5541C6.97006 21.2301 9.14668 16.1597 12.9226 12.4045C16.6985 8.64927 21.7809 6.50058 27.1055 6.40836C32.43 6.31613 37.5837 8.28752 41.4875 11.9097C41.4938 11.9068 41.5006 11.9053 41.5075 11.9053C41.5144 11.9053 41.5213 11.9068 41.5276 11.9097C44.9851 15.7144 46.8934 20.6754 46.8769 25.8164Z" fill="white"/>
<path id="Vector_6" d="M26.2575 27.0194C26.0995 27.0197 25.943 26.9886 25.7971 26.9281C25.6512 26.8675 25.5187 26.7786 25.4074 26.6665L15.3503 16.6094C15.2321 16.4993 15.1373 16.3665 15.0715 16.2189C15.0058 16.0713 14.9704 15.912 14.9676 15.7505C14.9647 15.589 14.9944 15.4285 15.0549 15.2787C15.1155 15.1289 15.2055 14.9929 15.3197 14.8786C15.434 14.7644 15.5701 14.6744 15.7199 14.6138C15.8696 14.5533 16.0301 14.5236 16.1916 14.5265C16.3531 14.5293 16.5124 14.5647 16.66 14.6304C16.8076 14.6962 16.9404 14.791 17.0505 14.9092L26.2575 24.1161L31.5747 18.7989C31.8028 18.5864 32.1044 18.4707 32.4161 18.4762C32.7277 18.4817 33.0251 18.6079 33.2455 18.8284C33.4659 19.0488 33.5922 19.3461 33.5977 19.6578C33.6032 19.9694 33.4875 20.2711 33.275 20.4991L27.1076 26.6665C26.8817 26.8914 26.5763 27.0182 26.2575 27.0194Z" fill="#263238"/>
</g>
</svg>
