<svg preserveAspectRatio="none" width="100%" height="100%" overflow="visible" style="display: block;" viewBox="0 0 110.949 169.022" fill="none" xmlns="http://www.w3.org/2000/svg">
<g id="freepik--Hourglass--inject-2">
<g id="Group" opacity="0.2">
<path id="Vector" d="M106.554 164.37L55.4744 69.9585L4.39498 164.37H106.554Z" fill="#1E5AF0"/>
<path id="Vector_2" d="M106.554 4.6516L55.4744 99.055L4.39498 4.6516H106.554Z" fill="#1E5AF0"/>
</g>
<path id="Vector_3" d="M64.8337 60.3906L57.3591 74.2011C57.1756 74.5412 56.9036 74.8253 56.5718 75.0233C56.24 75.2214 55.8608 75.3259 55.4744 75.3259C55.0879 75.3259 54.7087 75.2214 54.3769 75.0233C54.0451 74.8253 53.7731 74.5412 53.5897 74.2011L46.115 60.3906C45.4411 59.1423 45.1031 57.7404 45.1341 56.3221C45.1651 54.9039 45.564 53.518 46.2917 52.3003C47.0194 51.0827 48.0509 50.0749 49.2853 49.3758C50.5196 48.6768 51.9144 48.3103 53.333 48.3125H57.6558C59.071 48.3173 60.4607 48.6887 61.6896 49.3907C62.9184 50.0926 63.9443 51.101 64.6673 52.3176C65.3903 53.5341 65.7857 54.9173 65.8148 56.3322C65.844 57.747 65.5059 59.1453 64.8337 60.3906Z" fill="#1E5AF0"/>
<path id="Vector_4" d="M56.2844 140.534L79.5023 150.078C79.9553 150.269 80.3289 150.61 80.5601 151.044C80.7913 151.478 80.8662 151.979 80.7722 152.461C80.6781 152.944 80.4208 153.379 80.0435 153.695C79.6662 154.01 79.1919 154.186 78.7003 154.193H32.2885C31.7969 154.186 31.3226 154.01 30.9453 153.695C30.568 153.379 30.3108 152.944 30.2167 152.461C30.1226 151.979 30.1975 151.478 30.4287 151.044C30.66 150.61 31.0335 150.269 31.4865 150.078L54.6403 140.534C54.9006 140.425 55.18 140.369 55.4623 140.369C55.7446 140.369 56.0241 140.425 56.2844 140.534Z" fill="#1E5AF0"/>
<path id="Vector_5" d="M55.4744 122.377C57.1176 122.377 58.4498 121.045 58.4498 119.402C58.4498 117.758 57.1176 116.426 55.4744 116.426C53.8311 116.426 52.4989 117.758 52.4989 119.402C52.4989 121.045 53.8311 122.377 55.4744 122.377Z" fill="#1E5AF0"/>
<path id="Vector_6" d="M55.4744 89.8561C56.3204 89.8561 57.0062 89.1703 57.0062 88.3243C57.0062 87.4783 56.3204 86.7925 55.4744 86.7925C54.6284 86.7925 53.9425 87.4783 53.9425 88.3243C53.9425 89.1703 54.6284 89.8561 55.4744 89.8561Z" fill="#1E5AF0"/>
<path id="Vector_7" d="M55.4744 104.878C56.4355 104.878 57.2147 104.098 57.2147 103.137C57.2147 102.176 56.4355 101.397 55.4744 101.397C54.5132 101.397 53.734 102.176 53.734 103.137C53.734 104.098 54.5132 104.878 55.4744 104.878Z" fill="#1E5AF0"/>
<path id="Vector_8" d="M106.297 159.71H4.65161C3.41785 159.715 2.23595 160.207 1.36429 161.08C0.492633 161.953 0.00212445 163.136 1.18408e-05 164.37C0.0042396 165.602 0.495676 166.783 1.36711 167.654C2.23853 168.526 3.41923 169.017 4.65161 169.022H106.297C107.529 169.017 108.71 168.526 109.582 167.654C110.453 166.783 110.944 165.602 110.949 164.37C110.947 163.136 110.456 161.953 109.584 161.08C108.713 160.207 107.531 159.715 106.297 159.71Z" fill="#1E5AF0"/>
<path id="Vector_9" d="M106.297 0H4.6516C3.41922 0.00422776 2.23852 0.495664 1.36709 1.36709C0.495664 2.23852 0.00422776 3.41922 0 4.6516C0.00422776 5.88398 0.495664 7.06468 1.36709 7.93611C2.23852 8.80754 3.41922 9.29898 4.6516 9.3032H106.297C107.529 9.29898 108.71 8.80754 109.582 7.93611C110.453 7.06468 110.944 5.88398 110.949 4.6516C110.944 3.41922 110.453 2.23852 109.582 1.36709C108.71 0.495664 107.529 0.00422776 106.297 0Z" fill="#1E5AF0"/>
</g>
</svg>
